# File created by Blade
# Date/Time:  Wed Apr 08 14:47:28 2015
#---------------------------------------------------------
:version 1.10
:name HOM
:units
  mass 1.0
  length 1.000000
  angle deg
:documentation
     Acclaim Skeleton File
:root
   axis xyz
   order TX TY TZ RX RY RZ
   position 0.000000 0.000000 0.000000
   orientation 0 0 0
:bonedata
   begin
      id 1
      name Spine_dum
      direction 0.000000 1.000000 0.000000
      length 4.885285
      axis 0.0 0.0 0.0 xyz
   end
   begin
      id 2
      name LeftUpLeg_dum
      direction 1.000000 0.000000 0.000000
      length 2.672193
      axis 0.0 0.0 0.0 xyz
   end
   begin
      id 3
      name RightUpLeg_dum
      direction -1.000000 0.000000 0.000000
      length 2.672193
      axis 0.0 0.0 0.0 xyz
   end
   begin
      id 4
      name Spine
      direction 0.000000 1.000000 0.000000
      length 0.000000
      axis 0.0 0.0 0.0 xyz
      dof rx ry rz
   end
   begin
      id 5
      name Spine_dum1
      direction 0.000000 1.000000 0.000000
      length 16.494159
      axis 0.0 0.0 0.0 xyz
   end
   begin
      id 6
      name Spine_dum2
      direction 0.000000 1.000000 0.000000
      length 10.663448
      axis 0.0 0.0 0.0 xyz
   end
   begin
      id 7
      name Spine_dum3
      direction 0.000000 1.000000 0.000000
      length 10.663448
      axis 0.0 0.0 0.0 xyz
   end
   begin
      id 8
      name Head
      direction 0.000000 1.000000 0.000000
      length 4.527550
      axis 0.0 0.0 0.0 xyz
      dof rx ry rz
   end
   begin
      id 9
      name LeftShoulder
      direction 1.000000 0.000000 0.000000
      length 7.531907
      axis 0.0 0.0 -90.0 xyz
      dof rx ry rz
   end
   begin
      id 10
      name LeftArm
      direction 1.000000 0.000000 0.000000
      length 10.229199
      axis 0.0 0.0 -90.0 xyz
      dof rx ry rz
   end
   begin
      id 11
      name LeftForeArm
      direction 1.000000 0.000000 0.000000
      length 8.673495
      axis 0.0 0.0 -90.0 xyz
      dof ry rz rx
   end
   begin
      id 12
      name LeftHand
      direction 0.000000 0.000000 0.000000
      length 0.000000
      axis 0.0 0.0 -90.0 xyz
      dof rx ry rz
   end
   begin
      id 13
      name LeftHand_dum1
      direction 0.000000 0.000000 0.000000
      length 0.000000
      axis 0.0 0.0 -90.0 xyz
   end
   begin
      id 14
      name LeftHand_dum2
      direction 1.000000 0.000000 0.000000
      length 3.937000
      axis 0.0 0.0 -90.0 xyz
   end
   begin
      id 15
      name LeftHandThumb1
      direction 0.000000 0.000000 1.000000
      length 3.937000
      axis 0.0 0.0 -90.0 xyz
      dof rx rz ry
   end
   begin
      id 16
      name RightShoulder
      direction -1.000000 0.000000 0.000000
      length 7.531907
      axis 0.0 0.0 90.0 xyz
      dof rx ry rz
   end
   begin
      id 17
      name RightArm
      direction -1.000000 0.000000 0.000000
      length 10.229199
      axis 0.0 0.0 90.0 xyz
      dof rx ry rz
   end
   begin
      id 18
      name RightForeArm
      direction -1.000000 0.000000 0.000000
      length 8.673495
      axis 0.0 0.0 90.0 xyz
      dof ry rz rx
   end
   begin
      id 19
      name RightHand
      direction 0.000000 0.000000 0.000000
      length 0.000000
      axis 0.0 0.0 90.0 xyz
      dof rx ry rz
   end
   begin
      id 20
      name RightHand_dum1
      direction 0.000000 0.000000 0.000000
      length 0.000000
      axis 0.0 0.0 90.0 xyz
   end
   begin
      id 21
      name RightHand_dum2
      direction -1.000000 0.000000 0.000000
      length 3.937000
      axis 0.0 0.0 90.0 xyz
   end
   begin
      id 22
      name RightHandThumb1
      direction 0.000000 0.000000 1.000000
      length 3.937000
      axis 0.0 0.0 90.0 xyz
      dof rx rz ry
   end
   begin
      id 23
      name LeftUpLeg
      direction 0.000000 -1.000000 0.000000
      length 16.263388
      axis 0.0 0.0 0.0 xyz
      dof rx ry rz
   end
   begin
      id 24
      name LeftLeg
      direction 0.000000 -1.000000 0.000000
      length 14.328163
      axis 0.0 0.0 0.0 xyz
      dof rx ry rz
   end
   begin
      id 25
      name LeftFoot
      direction 0.000000 -0.258819 0.965926
      length 5.031290
      axis 15.0 0.0 0.0 xyz
      dof rx ry rz
   end
   begin
      id 26
      name LeftToeBase
      direction 0.000000 0.000000 1.000000
      length 2.952750
      axis 0.0 0.0 0.0 xyz
      dof rx ry rz
   end
   begin
      id 27
      name RightUpLeg
      direction 0.000000 -1.000000 0.000000
      length 16.263388
      axis 0.0 0.0 0.0 xyz
      dof rx ry rz
   end
   begin
      id 28
      name RightLeg
      direction 0.000000 -1.000000 0.000000
      length 14.328163
      axis 0.0 0.0 0.0 xyz
      dof rx ry rz
   end
   begin
      id 29
      name RightFoot
      direction 0.000000 -0.258819 0.965926
      length 5.031290
      axis 15.0 0.0 0.0 xyz
      dof rx ry rz
   end
   begin
      id 30
      name RightToeBase
      direction 0.000000 0.000000 1.000000
      length 2.952750
      axis 0.0 0.0 0.0 xyz
      dof rx ry rz
   end
:hierarchy
   begin
      root Spine_dum LeftUpLeg_dum RightUpLeg_dum
      Spine_dum Spine
      LeftUpLeg_dum LeftUpLeg
      RightUpLeg_dum RightUpLeg
      Spine Spine_dum1 Spine_dum2 Spine_dum3
      Spine_dum1 Head
      Spine_dum2 LeftShoulder
      Spine_dum3 RightShoulder
      LeftShoulder LeftArm
      LeftArm LeftForeArm
      LeftForeArm LeftHand
      LeftHand LeftHand_dum1 LeftHand_dum2
      LeftHand_dum1 LeftHandThumb1
      RightShoulder RightArm
      RightArm RightForeArm
      RightForeArm RightHand
      RightHand RightHand_dum1 RightHand_dum2
      RightHand_dum1 RightHandThumb1
      LeftUpLeg LeftLeg
      LeftLeg LeftFoot
      LeftFoot LeftToeBase
      RightUpLeg RightLeg
      RightLeg RightFoot
      RightFoot RightToeBase
   end

# File created by Blade
# Date/Time:  Wed Apr 08 14:47:20 2015
# Frame Rate: 120.000 fps
#------------------------------------------------------
:FULLY-SPECIFIED
:DEGREES
563
root 0.058939 31.107338 -15.778142 21.233343 4.230024 -2.134805
Spine -11.993714 0.401981 -2.250976
Head -2.297394 -9.467452 -0.383992
LeftShoulder -22.972968 49.627168 3.954551
LeftArm 49.023024 7.563138 -70.986102
LeftForeArm 13.550446 -0.000000 117.323705
LeftHand 9.395333 -0.000000 1.208776
LeftHandThumb1 -26.253704 0.000000 33.147579
RightShoulder -3.295336 -5.749296 -20.587357
RightArm 21.265866 -33.051042 74.097912
RightForeArm -1.520546 -0.000000 110.595577
RightHand 13.479877 -0.000000 -12.580019
RightHandThumb1 -24.326973 -0.000000 -32.862282
LeftUpLeg -50.840944 4.044681 -0.177794
LeftLeg 31.455694 -0.000000 -0.000000
LeftFoot -5.185560 16.766288 -16.151998
LeftToeBase -6.877172 -0.000000 0.000000
RightUpLeg -1.488731 -1.127786 3.649689
RightLeg -2.572574 -0.000000 0.000000
RightFoot -21.235514 -17.912367 12.650964
RightToeBase -4.479511 -0.000000 0.000000
564
root 0.149302 31.088914 -15.622112 21.442487 4.337697 -1.882565
Spine -12.317688 0.597255 -2.647567
Head -2.722289 -9.801938 -0.315813
LeftShoulder -23.301965 49.763414 3.760104
LeftArm 48.736765 7.273311 -71.102251
LeftForeArm 13.538266 -0.000000 117.292481
LeftHand 9.295681 -0.000000 1.518271
LeftHandThumb1 -26.253704 0.000000 33.147579
RightShoulder -3.228300 -5.505467 -20.651981
RightArm 21.461611 -33.130811 74.003874
RightForeArm -1.394661 -0.000000 110.602266
RightHand 13.347376 -0.000000 -12.534998
RightHandThumb1 -24.326973 -0.000000 -32.862282
LeftUpLeg -50.902875 4.038366 -0.682892
LeftLeg 31.780843 -0.000000 -0.000000
LeftFoot -5.773959 16.382720 -16.213576
LeftToeBase -6.754989 -0.000000 0.000000
RightUpLeg -1.537689 -1.611406 3.349590
RightLeg -2.241745 -0.000000 0.000000
RightFoot -21.447330 -17.706226 12.968810
RightToeBase -4.674997 -0.000000 0.000000
565
root 0.233587 31.072561 -15.463302 21.661741 4.441460 -1.680543
Spine -12.655968 0.808525 -3.033812
Head -3.189937 -10.126336 -0.191813
LeftShoulder -23.674990 49.875496 3.535768
LeftArm 48.332351 6.939145 -71.283118
LeftForeArm 13.309068 -0.000000 117.270386
LeftHand 9.242209 0.000000 1.649352
LeftHandThumb1 -26.253704 0.000000 33.147579
RightShoulder -3.089165 -5.268726 -20.716552
RightArm 21.606965 -33.189498 73.980544
RightForeArm -1.386801 -0.000000 110.653357
RightHand 13.179923 0.000000 -12.527460
RightHandThumb1 -24.326973 -0.000000 -32.862282
LeftUpLeg -50.937879 3.843576 -0.920640
LeftLeg 32.125623 -0.000000 -0.000000
LeftFoot -6.374792 15.936887 -16.427676
LeftToeBase -6.826352 -0.000000 0.000000
RightUpLeg -1.626672 -2.041981 3.105529
RightLeg -1.835346 -0.000000 0.000000
RightFoot -21.698362 -17.481518 13.420205
RightToeBase -4.913260 -0.000000 0.000000
566
root 0.319566 31.057663 -15.300626 21.817980 4.568591 -1.502695
Spine -12.913370 1.065174 -3.396658
Head -3.722896 -10.498244 -0.081735
LeftShoulder -24.038118 49.987791 3.261992
LeftArm 47.887617 6.537004 -71.518776
LeftForeArm 12.937074 -0.000000 117.230667
LeftHand 9.186249 0.000000 1.613324
LeftHandThumb1 -26.253704 0.000000 33.147579
RightShoulder -2.990279 -5.076230 -20.791758
RightArm 21.881227 -33.296044 73.905185
RightForeArm -1.221116 -0.000000 110.629777
RightHand 13.187347 -0.000000 -12.659704
RightHandThumb1 -24.326973 -0.000000 -32.862282
LeftUpLeg -50.953816 3.613860 -1.054346
LeftLeg 32.588887 -0.000000 -0.000000
LeftFoot -6.943574 15.335236 -16.638926
LeftToeBase -6.891530 -0.000000 0.000000
RightUpLeg -1.674235 -2.542931 2.881919
RightLeg -1.372763 -0.000000 0.000000
RightFoot -21.945961 -17.202125 13.962754
RightToeBase -5.160718 -0.000000 0.000000
567
root 0.408333 31.045291 -15.127788 21.939445 4.690116 -1.305676
Spine -13.157266 1.389472 -3.825343
Head -4.245362 -10.996124 0.067631
LeftShoulder -24.392481 50.113202 2.967222
LeftArm 47.409148 6.144993 -71.752129
LeftForeArm 12.761546 0.000000 117.150832
LeftHand 9.319309 -0.000000 1.764591
LeftHandThumb1 -26.253704 0.000000 33.147579
RightShoulder -2.888694 -4.856120 -20.839707
RightArm 21.971943 -33.282121 73.958671
RightForeArm -1.557336 -0.000000 110.732013
RightHand 12.730397 -0.000000 -11.993252
RightHandThumb1 -24.326973 -0.000000 -32.862282
LeftUpLeg -50.893326 3.228514 -1.050429
LeftLeg 33.025897 -0.000000 -0.000000
LeftFoot -7.491252 14.721559 -16.997209
LeftToeBase -7.247605 -0.000000 0.000000
RightUpLeg -1.698714 -3.005287 2.617003
RightLeg -0.805380 -0.000000 0.000000
RightFoot -22.214974 -16.779112 14.565902
RightToeBase -5.477349 -0.000000 0.000000
